<svg width="32" height="32" viewBox="0 0 32 32" fill="none" xmlns="http://www.w3.org/2000/svg">
<g clip-path="url(#clip0_25_144)">
<path d="M0.849988 12.0501L0.299988 5.6501C0.299988 5.6501 4.64999 3.8501 6.14999 3.6001C8.54999 3.2001 13.15 2.6001 16 2.6001C18.85 2.6001 23.4 3.2001 25.85 3.6001C27.4 3.8501 31.7 5.6501 31.7 5.6501L31.15 12.0501L25.1 12.5001C25 19.3501 26.05 27.7501 26.4 30.5501C26.4 30.5501 21.95 30.7501 16 30.8001C10.05 30.7501 5.59999 30.5501 5.59999 30.5501C5.94999 27.7501 6.99999 19.3501 6.89999 12.5001L0.849988 12.0501Z" fill="#FF99B6"/>
<path d="M16 6.19995H16.6V30.7999H16V6.19995Z" fill="#FF78A5"/>
<path d="M13.15 2.80005H18.9V6.30005H13.15V2.80005Z" fill="#FF78A5"/>
<path d="M10.9 0H21.1V3.3H10.9V0Z" fill="#FF99B6"/>
<path d="M21.1 0L23.05 3.1L19.35 8.85L16 6.3L21.1 0Z" fill="#FFD2DF"/>
<path d="M10.9 0L8.95001 3.1L12.65 8.85L16 6.3L10.9 0Z" fill="#FFD2DF"/>
<path d="M14.45 11.4999C15.168 11.4999 15.75 10.9179 15.75 10.1999C15.75 9.48193 15.168 8.8999 14.45 8.8999C13.7321 8.8999 13.15 9.48193 13.15 10.1999C13.15 10.9179 13.7321 11.4999 14.45 11.4999Z" fill="#FF78A5"/>
<path d="M14.45 11.1999C15.1404 11.1999 15.7 10.685 15.7 10.0499C15.7 9.41478 15.1404 8.8999 14.45 8.8999C13.7597 8.8999 13.2 9.41478 13.2 10.0499C13.2 10.685 13.7597 11.1999 14.45 11.1999Z" fill="#FFF3F7"/>
<path d="M14.45 15.7499C15.168 15.7499 15.75 15.1679 15.75 14.4499C15.75 13.7319 15.168 13.1499 14.45 13.1499C13.7321 13.1499 13.15 13.7319 13.15 14.4499C13.15 15.1679 13.7321 15.7499 14.45 15.7499Z" fill="#FF78A5"/>
<path d="M14.45 15.4499C15.1404 15.4499 15.7 14.935 15.7 14.2999C15.7 13.6648 15.1404 13.1499 14.45 13.1499C13.7597 13.1499 13.2 13.6648 13.2 14.2999C13.2 14.935 13.7597 15.4499 14.45 15.4499Z" fill="#FFF3F7"/>
<path d="M14.45 19.9999C15.168 19.9999 15.75 19.4179 15.75 18.6999C15.75 17.9819 15.168 17.3999 14.45 17.3999C13.7321 17.3999 13.15 17.9819 13.15 18.6999C13.15 19.4179 13.7321 19.9999 14.45 19.9999Z" fill="#FF78A5"/>
<path d="M14.45 19.6999C15.1404 19.6999 15.7 19.185 15.7 18.5499C15.7 17.9148 15.1404 17.3999 14.45 17.3999C13.7597 17.3999 13.2 17.9148 13.2 18.5499C13.2 19.185 13.7597 19.6999 14.45 19.6999Z" fill="#FFF3F7"/>
<path d="M14.45 24.2499C15.168 24.2499 15.75 23.6679 15.75 22.9499C15.75 22.2319 15.168 21.6499 14.45 21.6499C13.7321 21.6499 13.15 22.2319 13.15 22.9499C13.15 23.6679 13.7321 24.2499 14.45 24.2499Z" fill="#FF78A5"/>
<path d="M14.45 23.9499C15.1404 23.9499 15.7 23.435 15.7 22.7999C15.7 22.1648 15.1404 21.6499 14.45 21.6499C13.7597 21.6499 13.2 22.1648 13.2 22.7999C13.2 23.435 13.7597 23.9499 14.45 23.9499Z" fill="#FFF3F7"/>
<path d="M14.45 28.4999C15.168 28.4999 15.75 27.9179 15.75 27.1999C15.75 26.4819 15.168 25.8999 14.45 25.8999C13.7321 25.8999 13.15 26.4819 13.15 27.1999C13.15 27.9179 13.7321 28.4999 14.45 28.4999Z" fill="#FF78A5"/>
<path d="M14.45 28.1999C15.1404 28.1999 15.7 27.685 15.7 27.0499C15.7 26.4148 15.1404 25.8999 14.45 25.8999C13.7597 25.8999 13.2 26.4148 13.2 27.0499C13.2 27.685 13.7597 28.1999 14.45 28.1999Z" fill="#FFF3F7"/>
<path d="M32 5.55L30.35 5L29.75 12.3L31.5 12.15L32 5.55ZM0 5.55L1.65 5L2.25 12.3L0.5 12.15L0 5.55ZM16 29.55C21.35 29.45 25.6 28.75 26.3 28.3C26.35 29.25 26.35 30.05 26.4 30.7C26.4 30.7 21.95 31.95 16 32.05C10.05 31.95 5.6 30.7 5.6 30.7C5.65 30.1 5.7 29.25 5.7 28.3C6.4 28.7 10.65 29.45 16 29.55Z" fill="#FFD2DF"/>
<path d="M16 29.55H16.6V32H16V29.55Z" fill="#FF99B6"/>
</g>
<defs>
<clipPath id="clip0_25_144">
<rect width="32" height="32" fill="white"/>
</clipPath>
</defs>
</svg>
