<svg width="33" height="33" viewBox="0 0 33 33" fill="none" xmlns="http://www.w3.org/2000/svg">
<path d="M16.7578 22.8423C9.95154 22.8423 4.27966 20.7282 2.9906 17.9438C5.36248 25.2142 3.91873 31.9688 16.7578 31.9688C29.5969 31.9688 28.1531 25.2142 30.525 17.9438C29.2359 20.7282 23.564 22.8423 16.7578 22.8423Z" fill="#3E4347"/>
<path d="M10.4156 10.5703C17.686 8.5594 34.3922 11.6016 30.7313 18.511C32.7422 20.7797 33.4641 23.2032 23.8735 23.0485C9.12659 26.5032 -3.04216 19.336 2.32033 13.9219C1.03127 11.2922 3.86721 9.95159 10.4156 10.5703Z" fill="#6F7980"/>
<path d="M16.7578 22.5327C23.2031 22.5327 28.5656 20.5218 29.8031 17.8921C29.9062 17.6343 29.9578 17.3765 30.0609 17.1187C30.0609 16.964 30.1125 16.8608 30.1125 16.7062C30.1125 13.5093 24.1312 10.9312 16.8094 10.9312C9.48748 10.9312 3.50623 13.5093 3.50623 16.7062C3.50623 16.8608 3.50623 16.964 3.55779 17.1187C3.60935 17.3765 3.71248 17.6343 3.8156 17.8921C4.94998 20.5218 10.3125 22.5327 16.7578 22.5327Z" fill="#3E4347"/>
<path d="M16.7578 22.5329C23.2031 22.5329 28.5656 20.5219 29.8031 17.8922C29.8031 17.7891 29.8547 17.7375 29.8547 17.6344C28.7719 14.9016 23.3062 12.8391 16.7062 12.8391C10.1062 12.8391 4.64061 14.9016 3.5578 17.6344C3.60936 17.7375 3.60936 17.7891 3.60936 17.8922C4.94999 20.5219 10.3125 22.5329 16.7578 22.5329Z" fill="#FBBF67"/>
<path d="M18.5625 15.675C15.9844 15.6235 12.839 17.686 10.725 17.5313C7.21874 17.2735 10.8281 18.975 13.3031 18.975C14.9531 18.975 16.0875 17.4797 16.9641 16.861C18.2016 16.0875 21.2437 15.7266 18.5625 15.675Z" fill="#D33B23"/>
<path d="M10.9313 13.9734C10.2609 12.1172 6.39376 15.1594 9.69376 15.8297C10.2094 15.9328 11.4984 15.6234 10.9313 13.9734ZM18.4078 19.8C17.5828 17.5312 12.7875 21.2953 16.9125 22.0687C17.5313 22.1719 19.1297 21.8109 18.4078 19.8ZM19.2844 13.3031C18.5109 11.4469 13.7156 14.489 17.7891 15.1594C18.3563 15.2109 19.9547 14.9015 19.2844 13.3031ZM27.1734 15.314C26.8641 13.3031 20.7281 14.4375 24.9563 16.5515C25.575 16.8609 27.4313 17.1187 27.1734 15.314Z" fill="#FF8736"/>
<path d="M7.78593 17.1188C7.21874 16.3454 6.39374 15.3141 6.08437 15.8297C5.62031 16.5516 5.46562 17.9954 5.82656 18.0469C8.40468 18.5626 8.19843 17.7376 7.78593 17.1188ZM21.9656 15.6751C21.0375 16.0876 20.4703 15.7782 20.0578 16.3969C19.0781 17.7891 22.4297 18.2532 23.0484 17.4282C23.5125 16.861 22.5844 15.4172 21.9656 15.6751ZM22.7391 19.1297C22.0687 18.8204 22.2234 19.8516 21.1922 19.0266C20.4703 18.4594 18.9234 19.9032 19.9547 20.8829C21.0891 21.9657 21.3984 20.9344 21.8625 21.0376C22.8422 21.1922 24.5437 19.9032 22.7391 19.1297ZM11.3953 19.4391C10.7766 18.8204 9.79687 20.5735 10.1578 21.0376C10.9312 22.0688 13.7156 21.8626 14.4375 21.0891C15.3656 20.161 12.8906 20.8829 11.3953 19.4391Z" fill="#89664C"/>
<path d="M9.02345 18.9235C9.02345 18.9235 9.07501 19.5423 9.17814 19.8001C8.50782 19.5423 8.50782 18.3563 8.50782 18.3563C8.50782 18.3563 8.04376 18.6142 8.09532 19.0782C7.37345 18.4595 6.7547 18.7688 6.7547 18.7688C6.7547 18.7688 7.68282 19.2845 7.83751 19.6454C7.32189 19.697 7.01251 19.8517 6.80626 20.2642C6.80626 20.2642 7.83751 19.7485 8.61095 20.1095C8.30157 20.3673 8.45626 20.986 8.45626 20.986C9.69376 19.697 10.4672 20.8313 11.0344 20.522C10.5703 19.9032 9.90001 19.8001 9.90001 19.8001C9.6422 19.2845 9.02345 18.9235 9.02345 18.9235ZM14.5922 13.8704C13.9734 13.7673 13.3547 14.0767 13.3547 14.0767C13.3547 14.0767 13.9219 14.3345 14.1797 14.4376C13.6125 14.9017 12.5813 14.2829 12.5813 14.2829C12.5813 14.2829 12.5813 14.7985 12.9938 15.0048C12.1172 15.3142 12.0141 16.036 12.0141 16.036C12.0141 16.036 12.9422 15.5204 13.3031 15.572C13.0453 16.036 13.0453 16.397 13.3547 16.7579C13.3547 16.7579 13.4578 15.6235 14.1797 15.1595C14.2313 15.572 14.85 15.7267 14.85 15.7267C14.3859 14.0251 15.7781 13.922 15.7781 13.3032C15.0563 13.3032 14.5922 13.8704 14.5922 13.8704ZM26.6063 18.511C26.8641 18.2532 27.9469 18.0985 27.9469 18.0985C27.9469 18.0985 27.4828 17.5829 26.5547 17.8407C26.761 17.4282 26.4516 17.0157 26.4516 17.0157C26.4516 17.0157 25.9875 18.0985 25.2656 18.0985C25.4719 17.8407 25.7297 17.3251 25.7297 17.3251C25.7297 17.3251 25.0078 17.4798 24.5953 17.9438C24.5953 17.9438 23.925 17.7376 23.3063 18.1501C23.6672 18.6657 24.8531 17.8923 25.4719 19.5423C25.4719 19.5423 25.8328 19.0267 25.6781 18.6657C26.5031 18.6142 27.2766 19.4907 27.2766 19.4907C27.2766 19.0267 27.0703 18.7688 26.6063 18.511Z" fill="#699635"/>
<path opacity="0.6" d="M17.1703 5.87812C15.2625 3.91875 16.5516 1.03125 16.5516 1.03125C16.5516 1.03125 12.5297 4.84687 15.0563 7.47656C17.9953 10.5188 16.5516 12.375 16.5516 12.375C16.5516 12.375 20.1609 8.97187 17.1703 5.87812ZM11.4984 7.63125C10.0547 6.23906 11.0344 4.125 11.0344 4.125C11.0344 4.125 8.04376 6.90938 9.95157 8.81719C12.1688 11.0344 11.0344 12.375 11.0344 12.375C11.0344 12.375 13.7156 9.9 11.4984 7.63125ZM22.8422 7.63125C21.3984 6.23906 22.3781 4.125 22.3781 4.125C22.3781 4.125 19.3875 6.90938 21.2953 8.81719C23.5125 11.0344 22.3781 12.375 22.3781 12.375C22.3781 12.375 25.0594 9.9 22.8422 7.63125Z" fill="#A6AEB0"/>
</svg>
