<svg width="54" height="54" viewBox="0 0 54 54" fill="none" xmlns="http://www.w3.org/2000/svg">
<path d="M28.8689 2.26956C29.2443 1.4469 29.9446 1.21487 30.5268 1.18956C31.4128 1.14737 32.3409 1.75909 33.2142 2.4805C33.8343 3.18081 34.5768 3.72081 35.4374 4.1005C36.0323 4.31143 36.6229 4.35362 37.222 4.32409C38.0657 4.2819 38.9221 4.09628 39.7701 4.05409L39.8165 4.04987L40.2004 4.01612C41.1707 3.96972 42.0862 4.19753 42.9553 4.69956C43.7526 5.42518 44.1028 6.328 43.9931 7.41643C43.8074 8.31503 43.9678 9.13768 44.4698 9.8844C45.3346 10.4919 46.2417 11.0235 47.1951 11.4749C48.1823 12.0149 48.8024 12.8291 49.0724 13.9133C49.1695 15.0608 48.6379 15.7949 47.4904 16.1113C45.997 16.4867 43.9889 16.4867 42.2971 17.7946C39.8249 19.8575 39.0487 21.9374 37.9729 22.2538C37.4456 21.6547 34.1549 19.1108 28.6368 17.8916C27.6496 14.4871 27.0506 6.26893 28.8689 2.26956Z" fill="#FCC21B"/>
<path d="M34.4376 17.166C35.4079 15.2254 38.1712 11.8124 38.8336 12.4874C39.4875 13.2215 37.9814 17.0352 36.9225 18.9041C36.547 18.5076 35.3362 17.6765 34.8089 17.5373" fill="#D19B15"/>
<path d="M39.3188 23.3804C38.7492 23.3804 38.1924 23.0893 37.8759 22.5662C34.9734 17.7905 28.4006 18.2926 28.3374 18.301C27.4092 18.3769 26.5908 17.6935 26.5106 16.7696C26.4714 16.3252 26.6095 15.8833 26.8948 15.5403C27.1801 15.1973 27.5895 14.981 28.0336 14.9387C28.388 14.9049 36.7538 14.2173 40.7616 20.8196C41.2467 21.6169 40.9894 22.6548 40.1963 23.1357C39.9178 23.3002 39.6183 23.3804 39.3188 23.3804Z" fill="#8D6E63"/>
<path d="M40.5253 51.4983C33.2986 53.2786 23.2538 53.1521 16.0777 51.7346C9.36143 50.4057 4.21878 46.4443 4.8094 38.648C5.40846 30.7589 10.6355 23.3297 17.8242 20.056C24.781 16.8877 34.1171 15.3436 39.0361 22.5324C40.2596 24.3211 42.5967 28.291 42.7064 30.24C42.7149 30.3961 42.7233 30.5354 42.7571 30.6704C42.7655 31.1597 42.9638 31.6533 43.4447 32.0161C46.5371 34.3575 48.7899 37.4625 49.2033 41.7193C49.6927 46.7944 44.8917 50.4225 40.5253 51.4983Z" fill="#FCC21B"/>
<path d="M34.1171 38.4453C33.2396 37.0193 31.6238 35.4711 30.0966 34.1421L31.2821 30.86C32.3367 31.6826 33.2649 32.4546 33.9905 33.1212C34.1086 33.2351 34.2942 33.2436 34.4292 33.1465L37.1461 31.1257C37.2221 31.0667 37.2685 30.9823 37.2811 30.8853C37.2856 30.8379 37.2801 30.7901 37.2648 30.745C37.2495 30.6999 37.2249 30.6586 37.1925 30.6237C36.3867 29.7251 34.6402 28.1515 32.7291 26.8564L33.4252 24.9326C33.5053 24.7132 33.3956 24.4728 33.1721 24.3884L29.9785 23.2325C29.7591 23.1523 29.5144 23.2662 29.4342 23.4856L28.9153 24.9242C25.9074 23.9918 23.5196 24.2914 21.6464 25.8565C20.1783 27.0884 19.5455 28.8476 19.9927 30.4423C20.4483 32.1425 21.7814 33.3068 23.4689 34.7792L23.6841 34.969C24.0764 35.3065 24.4941 35.6567 24.9033 36.0068L23.4605 39.9978C21.5663 38.7575 19.98 37.0404 19.71 36.665C19.6594 36.5952 19.5843 36.5473 19.4997 36.5308C19.4151 36.5144 19.3274 36.5307 19.2544 36.5764L16.1241 38.5761C16.0481 38.6225 15.9933 38.7026 15.9722 38.7954C15.9553 38.884 15.9722 38.9768 16.0228 39.0528C16.9636 40.4703 18.5035 42.0565 20.1446 43.2968C20.5369 43.5921 21.1275 44.0056 21.8531 44.4401L21.3089 45.9378C21.233 46.1571 21.3427 46.3976 21.5621 46.4778L24.7599 47.6379C24.9792 47.7181 25.2239 47.6042 25.3041 47.3848L25.7555 46.1361C28.6749 46.9292 31.2399 46.4693 33.2227 44.7734C35.138 43.1323 35.4671 40.8289 34.1171 38.4453ZM27.4978 28.8561L26.6246 31.2734C25.8103 30.6406 25.3758 30.1639 25.6838 29.4804C26.0044 28.7801 26.8017 28.7337 27.4978 28.8561ZM28.3627 38.9389C28.9238 39.4831 29.3203 39.9851 29.3583 40.445C29.3752 40.7065 29.2781 40.9596 29.0503 41.2212C28.6538 41.6811 28.021 41.7696 27.3671 41.6895L28.3627 38.9389Z" fill="#424242"/>
</svg>
